<svg xmlns="http://www.w3.org/2000/svg" width="52" height="19" viewBox="0 0 52 19" fill="none">
  <path d="M31.3117 2.30276H50.3822M31.3117 6.71694H50.3822M31.3117 12.014H50.3822M31.3117 16.4281H50.3822M3.67607 7.59977H18.0819C19.3701 7.59977 20.4143 6.55556 20.4143 5.26746V3.75224C20.4143 2.46414 19.37 1.41992 18.0819 1.41992H3.67607C2.38796 1.41992 1.34375 2.46413 1.34375 3.75224V5.26746C1.34375 6.55556 2.38797 7.59977 3.67607 7.59977ZM3.67607 17.311H18.0819C19.3701 17.311 20.4143 16.2668 20.4143 14.9787V13.4634C20.4143 12.1753 19.37 11.1311 18.0819 11.1311H3.67607C2.38796 11.1311 1.34375 12.1753 1.34375 13.4634V14.9787C1.34375 16.2668 2.38797 17.311 3.67607 17.311Z" stroke="#1C2230" stroke-width="1.55488" stroke-linecap="round" stroke-linejoin="round"/>
</svg>