<svg xmlns="http://www.w3.org/2000/svg" width="500" height="500" style="width:100%;height:100%;transform:translate3d(0,0,0);content-visibility:visible" viewBox="0 0 500 500"><defs><clipPath id="i"><path d="M0 0h500v500H0z"/></clipPath><clipPath id="l"><path d="M0 0h500v500H0z"/></clipPath><clipPath id="g"><path d="M0 0h500v500H0z"/></clipPath><clipPath id="j"><path d="M0 0h500v500H0z"/></clipPath><clipPath id="h"><path d="M0 0h500v500H0z"/></clipPath><filter id="a" width="100%" height="100%" x="0%" y="0%" filterUnits="objectBoundingBox"><feComponentTransfer in="SourceGraphic"><feFuncA tableValues="1.0 0.0" type="table"/></feComponentTransfer></filter><filter id="d" width="100%" height="100%" x="0%" y="0%" filterUnits="objectBoundingBox"><feComponentTransfer in="SourceGraphic"><feFuncA tableValues="1.0 0.0" type="table"/></feComponentTransfer></filter><mask id="m" mask-type="alpha"><g filter="url(#a)"><path fill="#fff" d="M0 0h500v500H0z" opacity="0"/><use xmlns:ns1="http://www.w3.org/1999/xlink" ns1:href="#c"/></g></mask><mask id="k" mask-type="alpha"><g filter="url(#d)"><path fill="#fff" d="M0 0h500v500H0z" opacity="0"/><use xmlns:ns2="http://www.w3.org/1999/xlink" ns2:href="#f"/></g></mask><g id="c" clip-path="url(#g)" style="display:none"><g class="primary design" style="display:none"><path class="primary"/><path fill-opacity="0" stroke-linecap="round" stroke-linejoin="round" class="primary"/></g><g class="primary design" style="display:none"><path class="primary"/><path fill-opacity="0" stroke-linecap="round" stroke-linejoin="round" class="primary"/></g><g class="primary design" style="display:none"><path class="primary"/><path fill-opacity="0" stroke-linecap="round" stroke-linejoin="round" class="primary"/></g></g><g id="f" clip-path="url(#h)" style="display:none"><g class="primary design" style="display:none"><path class="primary"/><path fill-opacity="0" stroke-linecap="round" stroke-linejoin="round" class="primary"/></g><g class="primary design" style="display:none"><path class="primary"/><path fill-opacity="0" stroke-linecap="round" stroke-linejoin="round" class="primary"/></g><g class="primary design" style="display:none"><path class="primary"/><path fill-opacity="0" stroke-linecap="round" stroke-linejoin="round" class="primary"/></g></g></defs><g clip-path="url(#i)"><g clip-path="url(#j)" style="display:block"><g class="primary design" style="display:none"><path fill="none" class="primary"/></g><g class="primary design" mask="url(#k)" style="display:none"><path class="primary"/></g><g class="primary design" style="display:none"><path fill="#434A4D" d="M317.697 83.402H182.303c-77.488 0-140.603 63.115-140.603 140.602V401.06c0 8.54 7.082 15.623 15.623 15.623h260.374c77.488 0 140.603-63.115 140.603-140.603v-52.075c0-77.487-63.115-140.602-140.603-140.602m41.244 171.639c-.417 1.666-.833 3.333-1.666 5-.625 1.457-1.459 2.915-2.292 4.373a30.5 30.5 0 0 1-3.333 3.958c-1.041 1.25-2.5 2.291-3.957 3.333-1.25.833-2.916 1.666-4.375 2.291-1.666.625-3.332 1.25-4.999 1.458a20.5 20.5 0 0 1-4.999.625c-6.874 0-13.54-2.916-18.33-7.707a30.5 30.5 0 0 1-3.333-3.958c-.833-1.458-1.667-2.916-2.292-4.374-.833-1.666-1.25-3.333-1.666-5-.208-1.666-.417-3.332-.417-4.998 0-6.874 2.708-13.54 7.708-18.539 1.041-1.042 2.5-2.291 3.957-3.125 1.25-1.041 2.917-1.874 4.375-2.5 1.666-.624 3.332-1.04 4.999-1.457 8.332-1.667 17.497 1.041 23.33 7.082 4.999 5 7.706 11.665 7.706 18.539 0 1.666-.208 3.332-.416 4.999m-82.904-5c0 6.875-2.707 13.54-7.707 18.331-1.041 1.25-2.5 2.291-3.957 3.333-1.25.833-2.916 1.666-4.375 2.291-1.666.625-3.332 1.25-4.999 1.458a20.5 20.5 0 0 1-4.999.625q-2.5 0-5-.625c-1.666-.208-3.332-.833-4.998-1.458-1.459-.625-3.125-1.458-4.375-2.291-1.458-1.042-2.916-2.083-3.957-3.333-5-4.79-7.707-11.456-7.707-18.33s2.707-13.54 7.707-18.539c1.041-1.042 2.5-2.291 3.957-3.125 1.25-1.041 2.916-1.666 4.375-2.5 1.666-.624 3.332-1.04 4.999-1.457a26.9 26.9 0 0 1 9.998 0c1.667.416 3.333.833 5 1.458 1.458.833 3.124 1.458 4.374 2.5 1.458.833 2.916 2.082 3.957 3.124 5 5 7.707 11.665 7.707 18.539m-127.687-18.33c1.041-1.25 2.5-2.5 3.957-3.333 1.25-1.041 2.916-1.666 4.375-2.5 1.666-.624 3.332-1.04 4.999-1.457a26.9 26.9 0 0 1 9.998 0c1.667.416 3.333.833 5 1.458 1.457.833 3.124 1.458 4.374 2.5 1.458.833 2.916 2.082 3.957 3.332 5 4.791 7.708 11.457 7.708 18.33 0 6.666-2.708 13.54-7.708 18.331-1.041 1.25-2.5 2.291-3.957 3.333-1.25.833-2.917 1.666-4.375 2.291-1.666.625-3.332 1.25-4.999 1.458a20.5 20.5 0 0 1-4.999.625q-2.5 0-5-.625c-1.666-.208-3.332-.833-4.998-1.458-1.459-.625-3.125-1.458-4.375-2.291-1.458-1.042-2.916-2.083-3.957-3.333-5-4.79-7.707-11.665-7.707-18.33 0-6.874 2.707-13.54 7.707-18.33" class="primary"/></g><g class="primary design" style="display:block"><path fill="#434A4D" d="M317.697 83.402H182.303c-77.488 0-140.603 63.115-140.603 140.602V401.06c0 8.54 7.082 15.623 15.623 15.623h260.374c77.488 0 140.603-63.115 140.603-140.603v-52.075c0-77.487-63.115-140.602-140.603-140.602m41.244 171.639c-.417 1.666-.833 3.333-1.666 5-.625 1.457-1.459 2.915-2.292 4.373a30.5 30.5 0 0 1-3.333 3.958c-1.041 1.25-2.5 2.291-3.957 3.333-1.25.833-2.916 1.666-4.375 2.291-1.666.625-3.332 1.25-4.999 1.458a20.5 20.5 0 0 1-4.999.625c-6.874 0-13.54-2.916-18.33-7.707a30.5 30.5 0 0 1-3.333-3.958c-.833-1.458-1.667-2.916-2.292-4.374-.833-1.666-1.25-3.333-1.666-5-.208-1.666-.417-3.332-.417-4.998 0-6.874 2.708-13.54 7.708-18.539 1.041-1.042 2.5-2.291 3.957-3.125 1.25-1.041 2.917-1.874 4.375-2.5 1.666-.624 3.332-1.04 4.999-1.457 8.332-1.667 17.497 1.041 23.33 7.082 4.999 5 7.706 11.665 7.706 18.539 0 1.666-.208 3.332-.416 4.999m-82.904-5c0 6.875-2.707 13.54-7.707 18.331-1.041 1.25-2.5 2.291-3.957 3.333-1.25.833-2.916 1.666-4.375 2.291-1.666.625-3.332 1.25-4.999 1.458a20.5 20.5 0 0 1-4.999.625q-2.5 0-5-.625c-1.666-.208-3.332-.833-4.998-1.458-1.459-.625-3.125-1.458-4.375-2.291-1.458-1.042-2.916-2.083-3.957-3.333-5-4.79-7.707-11.456-7.707-18.33s2.707-13.54 7.707-18.539c1.041-1.042 2.5-2.291 3.957-3.125 1.25-1.041 2.916-1.666 4.375-2.5 1.666-.624 3.332-1.04 4.999-1.457a26.9 26.9 0 0 1 9.998 0c1.667.416 3.333.833 5 1.458 1.458.833 3.124 1.458 4.374 2.5 1.458.833 2.916 2.082 3.957 3.124 5 5 7.707 11.665 7.707 18.539m-127.687-18.33c1.041-1.25 2.5-2.5 3.957-3.333 1.25-1.041 2.916-1.666 4.375-2.5 1.666-.624 3.332-1.04 4.999-1.457a26.9 26.9 0 0 1 9.998 0c1.667.416 3.333.833 5 1.458 1.457.833 3.124 1.458 4.374 2.5 1.458.833 2.916 2.082 3.957 3.332 5 4.791 7.708 11.457 7.708 18.33 0 6.666-2.708 13.54-7.708 18.331-1.041 1.25-2.5 2.291-3.957 3.333-1.25.833-2.917 1.666-4.375 2.291-1.666.625-3.332 1.25-4.999 1.458a20.5 20.5 0 0 1-4.999.625q-2.5 0-5-.625c-1.666-.208-3.332-.833-4.998-1.458-1.459-.625-3.125-1.458-4.375-2.291-1.458-1.042-2.916-2.083-3.957-3.333-5-4.79-7.707-11.665-7.707-18.33 0-6.874 2.707-13.54 7.707-18.33" class="primary"/></g></g><g clip-path="url(#l)" style="display:none"><g class="primary design" mask="url(#m)" style="display:none"><path class="primary"/><path fill="none" class="primary"/></g><g class="primary design" style="display:none"><path class="primary"/></g></g></g></svg>