<svg width="441" height="447" viewBox="0 0 441 447" fill="none" xmlns="http://www.w3.org/2000/svg">
<path d="M216.575 1.97271C218.577 -0.563658 222.423 -0.563656 224.425 1.97271L250.383 34.8621C251.957 36.8561 254.776 37.3531 256.937 36.0176L292.579 13.9901C295.327 12.2914 298.941 13.6067 299.955 16.6748L313.099 56.4591C313.896 58.8711 316.375 60.3022 318.862 59.7863L359.888 51.2774C363.052 50.6212 365.998 53.0933 365.902 56.3231L364.646 98.2036C364.57 100.743 366.41 102.935 368.923 103.301L410.386 109.337C413.583 109.803 415.506 113.133 414.311 116.135L398.807 155.061C397.867 157.421 398.846 160.11 401.083 161.314L437.98 181.167C440.826 182.698 441.494 186.485 439.343 188.897L411.461 220.173C409.771 222.069 409.771 224.931 411.461 226.827L439.343 258.103C441.494 260.515 440.826 264.302 437.98 265.833L401.083 285.686C398.846 286.89 397.867 289.579 398.807 291.939L414.311 330.865C415.506 333.867 413.583 337.197 410.386 337.663L368.923 343.699C366.41 344.065 364.57 346.257 364.646 348.796L365.902 390.677C365.998 393.907 363.052 396.379 359.888 395.723L318.862 387.214C316.375 386.698 313.896 388.129 313.099 390.541L299.955 430.325C298.941 433.393 295.327 434.709 292.579 433.01L256.937 410.982C254.776 409.647 251.957 410.144 250.383 412.138L224.425 445.027C222.423 447.564 218.577 447.564 216.575 445.027L190.617 412.138C189.043 410.144 186.224 409.647 184.063 410.982L148.421 433.01C145.673 434.709 142.059 433.393 141.045 430.325L127.901 390.541C127.104 388.129 124.625 386.698 122.138 387.214L81.1115 395.723C77.9477 396.379 75.0016 393.907 75.0984 390.677L76.3539 348.796C76.43 346.257 74.5902 344.065 72.0764 343.699L30.6141 337.663C27.4166 337.197 25.4937 333.867 26.6893 330.865L42.1931 291.939C43.133 289.579 42.1541 286.89 39.9171 285.686L3.01971 265.833C0.174258 264.302 -0.493566 260.514 1.65665 258.103L29.5387 226.827C31.2291 224.931 31.2291 222.069 29.5387 220.173L1.65664 188.897C-0.493568 186.485 0.174261 182.698 3.01972 181.167L39.9171 161.314C42.1541 160.11 43.133 157.421 42.1931 155.061L26.6893 116.135C25.4937 113.133 27.4166 109.803 30.6141 109.337L72.0764 103.301C74.5902 102.935 76.43 100.743 76.3539 98.2036L75.0984 56.3231C75.0016 53.0933 77.9477 50.6212 81.1115 51.2774L122.138 59.7863C124.625 60.3022 127.104 58.8711 127.901 56.4591L141.045 16.6748C142.059 13.6067 145.673 12.2914 148.421 13.9901L184.063 36.0176C186.224 37.3531 189.043 36.8561 190.617 34.8621L216.575 1.97271Z" fill="#14D6FF"/>
<path d="M121.727 207V199.896H133.439C135.529 199.896 137.151 199.256 138.303 197.976C139.497 196.696 140.095 195.181 140.095 193.432C140.095 192.237 139.839 191.149 139.327 190.168C138.815 189.187 138.047 188.419 137.023 187.864C136.041 187.267 134.847 186.968 133.439 186.968H121.727V179.928H132.479C134.271 179.928 135.7 179.48 136.767 178.584C137.876 177.688 138.431 176.344 138.431 174.552C138.431 172.717 137.876 171.352 136.767 170.456C135.7 169.56 134.271 169.112 132.479 169.112H121.727V162.008H133.503C136.489 162.008 138.985 162.563 140.991 163.672C143.039 164.739 144.575 166.168 145.599 167.96C146.623 169.709 147.135 171.629 147.135 173.72C147.135 176.28 146.345 178.499 144.767 180.376C143.231 182.211 140.969 183.576 137.983 184.472L138.367 181.656C141.695 182.595 144.255 184.152 146.047 186.328C147.881 188.461 148.799 191.043 148.799 194.072C148.799 196.461 148.201 198.637 147.007 200.6C145.855 202.52 144.148 204.077 141.887 205.272C139.668 206.424 136.959 207 133.759 207H121.727ZM115.327 207V162.008H123.967V207H115.327Z" fill="#F3F7FA"/>
<path d="M162.102 188.184V181.4H172.534C174.667 181.4 176.31 180.867 177.462 179.8C178.656 178.691 179.254 177.176 179.254 175.256C179.254 173.507 178.656 172.056 177.462 170.904C176.31 169.709 174.667 169.112 172.534 169.112H162.102V162.008H173.302C176.203 162.008 178.742 162.584 180.918 163.736C183.136 164.845 184.843 166.381 186.038 168.344C187.275 170.307 187.894 172.568 187.894 175.128C187.894 177.773 187.275 180.077 186.038 182.04C184.843 183.96 183.136 185.475 180.918 186.584C178.699 187.651 176.118 188.184 173.174 188.184H162.102ZM155.702 207V162.008H164.406V207H155.702ZM180.278 207L165.43 187.544L173.43 185.048L190.838 207H180.278Z" fill="#F3F7FA"/>
<path d="M190.999 207L209.111 162.008H216.215L234.263 207H224.983L211.031 170.072H214.231L200.087 207H190.999ZM200.599 198.616V191.32H224.791V198.616H200.599Z" fill="#F3F7FA"/>
<path d="M239.577 207V162.008H245.657L248.281 170.712V207H239.577ZM270.681 207L243.993 172.44L245.657 162.008L272.345 196.568L270.681 207ZM270.681 207L268.185 198.552V162.008H276.953V207H270.681Z" fill="#F3F7FA"/>
<path d="M292.029 207V199.256H303.485C306.386 199.256 308.925 198.659 311.101 197.464C313.277 196.227 314.962 194.499 316.157 192.28C317.394 190.061 318.013 187.437 318.013 184.408C318.013 181.464 317.394 178.904 316.157 176.728C314.919 174.509 313.213 172.803 311.037 171.608C308.861 170.371 306.343 169.752 303.485 169.752H291.837V162.008H303.613C306.941 162.008 310.013 162.563 312.829 163.672C315.687 164.781 318.162 166.36 320.253 168.408C322.386 170.413 324.029 172.781 325.181 175.512C326.375 178.243 326.973 181.229 326.973 184.472C326.973 187.715 326.375 190.723 325.181 193.496C324.029 196.227 322.407 198.616 320.317 200.664C318.226 202.669 315.751 204.227 312.893 205.336C310.077 206.445 307.026 207 303.741 207H292.029ZM286.077 207V162.008H294.781V207H286.077Z" fill="#F3F7FA"/>
<path d="M150.358 288V243.008H156.438L159.062 251.712V288H150.358ZM181.462 288L154.774 253.44L156.438 243.008L183.126 277.568L181.462 288ZM181.462 288L178.966 279.552V243.008H187.734V288H181.462Z" fill="#F3F7FA"/>
<path d="M196.858 288V243.008H205.562V288H196.858ZM203.258 288V280.32H228.154V288H203.258ZM203.258 268.736V261.312H225.914V268.736H203.258ZM203.258 250.688V243.008H227.834V250.688H203.258Z" fill="#F3F7FA"/>
<path d="M246.75 288L232.158 243.008H240.734L251.55 277.632H248.67L259.294 243.008H265.758L276.382 277.632H273.438L284.318 243.008H292.894L278.238 288H271.774L261.086 253.44H263.902L253.278 288H246.75Z" fill="#F3F7FA"/>
</svg>
